#N canvas 1043 357 759 519 12;
#X msg 184 216 freq \$1;
#X msg 258 215 sustain \$1;
#X msg 108 214 gain \$1;
#X msg 477 214 bend \$1;
#X msg 341 214 pluckPosition \$1;
#X msg 50 257 outGain 1;
#X obj 55 172 inlet;
#X obj 190 143 inlet;
#X obj 264 142 inlet;
#X obj 341 143 inlet;
#X obj 476 141 inlet;
#X obj 311 351 outlet~;
#X obj 263 287 faustgen~ FAUST_instruments/guitarMIDI;
#X obj 341 182 * 1;
#X obj 70 30 hsl 600 30 2.15 2.5 0 0 empty empty empty -2 -8 0 10 -262144
-1 -1 36800 0;
#X obj 225 96 nbx 5 14 -1e+037 1e+037 0 0 empty empty empty 0 -8 0
10 -262144 -1 -1 2.36503 256;
#X msg 432 147 1;
#X obj 83 126 * 0.75;
#X obj 477 182 * 2.547;
#X obj 260 184 / 9.564;
#X connect 0 0 12 0;
#X connect 1 0 12 0;
#X connect 2 0 12 0;
#X connect 3 0 12 0;
#X connect 4 0 12 0;
#X connect 5 0 12 0;
#X connect 6 0 2 0;
#X connect 6 0 5 0;
#X connect 7 0 17 0;
#X connect 7 0 0 0;
#X connect 8 0 19 0;
#X connect 9 0 13 0;
#X connect 10 0 18 0;
#X connect 12 0 11 0;
#X connect 13 0 4 0;
#X connect 14 0 15 0;
#X connect 15 0 16 0;
#X connect 15 0 18 1;
#X connect 16 0 18 0;
#X connect 18 0 3 0;
#X connect 19 0 1 0;
