#N canvas 970 302 883 602 12;
#X msg 317 293 envAttack \$1;
#X msg 165 292 freq \$1;
#X msg 414 293 vibratoFrequency \$1;
#X msg 229 292 sustain \$1;
#X msg 99 293 gain \$1;
#X msg 563 292 bend \$1;
#X obj 615 427 outlet~;
#X msg 61 437 vibratoGain 1;
#X msg 171 436 pressure 0.55;
#X msg 279 435 position 0.8;
#X msg 379 434 outGain 1;
#X obj 29 273 inlet;
#X obj 191 216 inlet;
#X obj 267 226 inlet;
#X obj 323 225 inlet;
#X obj 410 222 inlet;
#X obj 492 222 inlet;
#X obj 461 343 faustgen~ FAUST_instruments/violinMIDI;
#X obj 194 263 * 1;
#X obj 246 265 / 1;
#X obj 321 263 * 1;
#X obj 561 259 * 1;
#X msg 548 192 1;
#X msg 374 192 1;
#X obj 412 260 * 5;
#X connect 0 0 17 0;
#X connect 1 0 17 0;
#X connect 2 0 17 0;
#X connect 3 0 17 0;
#X connect 4 0 17 0;
#X connect 5 0 17 0;
#X connect 7 0 17 0;
#X connect 8 0 17 0;
#X connect 9 0 17 0;
#X connect 10 0 17 0;
#X connect 11 0 4 0;
#X connect 11 0 7 0;
#X connect 11 0 10 0;
#X connect 11 0 8 0;
#X connect 11 0 9 0;
#X connect 12 0 18 0;
#X connect 13 0 19 0;
#X connect 14 0 20 0;
#X connect 15 0 24 0;
#X connect 16 0 21 0;
#X connect 17 0 6 0;
#X connect 18 0 1 0;
#X connect 19 0 3 0;
#X connect 20 0 0 0;
#X connect 21 0 5 0;
#X connect 22 0 21 0;
#X connect 23 0 24 0;
#X connect 24 0 2 0;
