#N canvas 773 557 775 333 12;
#X msg 313 115 envAttack \$1;
#X msg 161 114 freq \$1;
#X msg 410 115 vibratoFrequency \$1;
#X msg 225 114 sustain \$1;
#X msg 95 115 gain \$1;
#X msg 559 114 bend \$1;
#X obj 611 249 outlet~;
#X msg 436 257 outGain 1;
#X obj 25 95 inlet;
#X obj 187 38 inlet;
#X obj 260 39 inlet;
#X obj 319 47 inlet;
#X obj 406 44 inlet;
#X obj 488 44 inlet;
#X obj 457 165 faustgen~ FAUST_instruments/violinMIDI;
#X msg 57 259 vibratoGain 1;
#X obj 317 85 * 1;
#X obj 228 79 * 1;
#X obj 408 82 * 5;
#X msg 176 264 pressure 0.378;
#X msg 298 259 position 0.425;
#X obj 557 81 * 1.7;
#X connect 0 0 14 0;
#X connect 1 0 14 0;
#X connect 2 0 14 0;
#X connect 3 0 14 0;
#X connect 4 0 14 0;
#X connect 5 0 14 0;
#X connect 7 0 14 0;
#X connect 8 0 4 0;
#X connect 8 0 15 0;
#X connect 8 0 7 0;
#X connect 8 0 19 0;
#X connect 8 0 20 0;
#X connect 9 0 1 0;
#X connect 10 0 17 0;
#X connect 11 0 16 0;
#X connect 12 0 18 0;
#X connect 13 0 21 0;
#X connect 14 0 6 0;
#X connect 15 0 14 0;
#X connect 16 0 0 0;
#X connect 17 0 3 0;
#X connect 18 0 2 0;
#X connect 19 0 14 0;
#X connect 20 0 14 0;
#X connect 21 0 5 0;
#X coords 0 0 1 1 85 60 0;
