#N canvas 895 32 867 579 12;
#X obj 105 182 oscparse;
#X obj 26 154 oscformat;
#X obj 107 210 list trim;
#X obj 85 325 outlet;
#X obj 184 105 inlet;
#X obj 108 240 unpack s f f f f;
#X obj 138 326 outlet;
#X obj 243 324 outlet;
#X obj 190 325 outlet;
#X connect 0 0 2 0;
#X connect 1 0 0 0;
#X connect 2 0 5 0;
#X connect 4 0 0 0;
#X connect 5 1 3 0;
#X connect 5 2 6 0;
#X connect 5 3 8 0;
#X connect 5 4 7 0;
