#N canvas -8 -8 1920 997 12;
#X msg 399 334 envAttack \$1;
#X msg 247 333 freq \$1;
#X msg 496 334 vibratoFrequency \$1;
#X msg 311 333 sustain \$1;
#X msg 181 334 gain \$1;
#X msg 645 333 bend \$1;
#X obj 697 468 outlet~;
#X msg 402 477 outGain 1;
#X obj 276 304 * 3;
#X obj 403 304 * 30;
#X obj 495 302 * 10;
#X obj 643 300 * 10;
#X obj 328 306 / 100;
#X obj 111 314 inlet;
#X obj 273 257 inlet;
#X obj 349 267 inlet;
#X obj 405 266 inlet;
#X obj 492 263 inlet;
#X obj 574 263 inlet;
#X msg 110 478 vibratoGain 0.5;
#X obj 543 384 faustgen~ FAUST_instruments/vocalFOFMIDI;
#X msg 235 477 voiceType 0;
#X msg 330 477 vowel 0;
#X connect 0 0 20 0;
#X connect 1 0 20 0;
#X connect 2 0 20 0;
#X connect 3 0 20 0;
#X connect 4 0 20 0;
#X connect 5 0 20 0;
#X connect 7 0 20 0;
#X connect 8 0 1 0;
#X connect 9 0 0 0;
#X connect 10 0 2 0;
#X connect 11 0 5 0;
#X connect 12 0 3 0;
#X connect 13 0 4 0;
#X connect 13 0 19 0;
#X connect 13 0 21 0;
#X connect 13 0 22 0;
#X connect 13 0 7 0;
#X connect 14 0 8 0;
#X connect 15 0 12 0;
#X connect 16 0 9 0;
#X connect 17 0 10 0;
#X connect 18 0 11 0;
#X connect 19 0 20 0;
#X connect 20 0 6 0;
#X connect 21 0 20 0;
#X connect 22 0 20 0;
