#N canvas 953 0 958 988 12;
#X floatatom 27 38 5 0 0 0 - - -;
#X obj 24 97 oscformat /ramp1;
#X obj 37 141 list prepend send;
#X obj 36 185 list trim;
#X obj 89 296 netsend -u -b;
#X msg 123 215 connect localhost 5000;
#X msg 133 251 disconnect;
#X text 23 14 Note;
#X floatatom 342 41 5 0 1 0 - - -;
#X obj 339 101 oscformat /ramp1;
#X obj 352 145 list prepend send;
#X obj 351 189 list trim;
#X obj 404 300 netsend -u -b;
#X msg 448 255 disconnect;
#X text 338 18 Volume;
#X msg 438 219 connect localhost 5001;
#X floatatom 64 383 5 0 0 0 - - -;
#X obj 61 443 oscformat /ramp1;
#X obj 74 487 list prepend send;
#X obj 73 531 list trim;
#X obj 126 642 netsend -u -b;
#X msg 170 597 disconnect;
#X text 60 360 Pitch;
#X msg 160 561 connect localhost 5002;
#X obj 294 335 bng 15 250 50 0 empty empty empty 17 7 0 10 -262144
-1 -1;
#X text 275 355 Connect;
#X obj 301 402 bng 15 250 50 0 empty empty empty 17 7 0 10 -262144
-1 -1;
#X text 283 427 Disconnect;
#X connect 0 0 1 0;
#X connect 1 0 2 0;
#X connect 2 0 3 0;
#X connect 3 0 4 0;
#X connect 5 0 4 0;
#X connect 6 0 4 0;
#X connect 8 0 9 0;
#X connect 9 0 10 0;
#X connect 10 0 11 0;
#X connect 11 0 12 0;
#X connect 13 0 12 0;
#X connect 15 0 12 0;
#X connect 16 0 17 0;
#X connect 17 0 18 0;
#X connect 18 0 19 0;
#X connect 19 0 20 0;
#X connect 21 0 20 0;
#X connect 23 0 20 0;
#X connect 24 0 5 0;
#X connect 24 0 15 0;
#X connect 24 0 23 0;
#X connect 26 0 21 0;
#X connect 26 0 6 0;
#X connect 26 0 13 0;
