#N canvas 973 69 958 988 12;
#X floatatom 157 37 5 0 0 0 - - -;
#X msg 212 108 3584;
#X obj 164 155 *;
#X obj 162 182 + 512;
#X obj 130 225 /;
#X obj 130 272 expr if($f1 == 0 \, 1 \, $f1) \;;
#X obj 233 169 trigger f f;
#X obj 131 137 bng 15 250 50 0 empty empty empty 17 7 0 10 -262144
-1 -1;
#X obj 70 35 inlet;
#X obj 132 337 outlet;
#X obj 262 5 inlet;
#X connect 0 0 4 0;
#X connect 1 0 2 1;
#X connect 2 0 3 0;
#X connect 3 0 6 0;
#X connect 4 0 5 0;
#X connect 5 0 9 0;
#X connect 6 0 0 0;
#X connect 6 1 4 1;
#X connect 6 1 7 0;
#X connect 7 0 0 0;
#X connect 8 0 1 0;
#X connect 8 0 2 0;
#X connect 10 0 0 0;
