#N canvas -8 -8 1920 997 12;
#X obj 18 154 unpack;
#X obj 199 202 cyclone/comment 50 11 helvetica ? 0 0 0 0 Control;
#X obj 313 203 cyclone/comment 50 11 helvetica ? 0 0 0 0 Aftertouch
;
#X obj 425 207 cyclone/comment 0 11 helvetica ? 0 0 0 0 Channel;
#X obj 39 196 cyclone/comment 43 11 helvetica ? 0 0 0 0 Note in;
#X obj 112 204 cyclone/comment 0 11 helvetica ? 0 0 0 0 Poly touch
;
#X obj 263 203 cyclone/comment 0 11 helvetica ? 0 0 0 0 Program;
#X obj 428 186 nbx 2 14 -1e+037 1e+037 0 0 empty empty empty 0 -8 0
10 -228856 -1 -1 0 256;
#X obj 315 187 nbx 3 14 -1e+037 1e+037 0 0 empty empty empty 0 -8 0
10 -228856 -1 -1 0 256;
#X obj 265 187 nbx 3 14 -1e+037 1e+037 0 0 empty empty empty 0 -8 0
10 -228856 -1 -1 0 256;
#X obj 18 184 nbx 3 14 -1e+037 1e+037 0 0 empty empty empty 0 -8 0
10 -228856 -1 -1 0 256;
#X obj 60 185 nbx 3 14 -1e+037 1e+037 0 0 empty empty empty 0 -8 0
10 -228856 -1 -1 0 256;
#X obj 67 155 unpack;
#X obj 98 186 nbx 3 14 -1e+037 1e+037 0 0 empty empty empty 0 -8 0
10 -228856 -1 -1 0 256;
#X obj 137 187 nbx 3 14 -1e+037 1e+037 0 0 empty empty empty 0 -8 0
10 -228856 -1 -1 0 256;
#X obj 120 155 unpack;
#X obj 180 188 nbx 3 14 -1e+037 1e+037 0 0 empty empty empty 0 -8 0
10 -228856 -1 -1 0 256;
#X obj 222 187 nbx 3 14 -1e+037 1e+037 0 0 empty empty empty 0 -8 0
10 -228856 -1 -1 0 256;
#X obj 16 128 cyclone/midiparse @hires 2, f 57;
#X obj 13 9 bng 15 250 50 0 empty empty empty 17 7 0 10 -262144 -1
-1;
#X obj 242 4 bng 15 250 50 0 empty empty empty 17 7 0 10 -262144 -1
-1;
#X text 264 1 Stop;
#X obj 361 186 nbx 5 14 -1e+037 1e+037 0 0 empty empty empty 0 -8 0
10 -262144 -1 -1 0 256;
#X text 370 204 pitch;
#X msg 62 754 outGain \$1;
#X msg 62 726 position \$1;
#X msg 61 701 pressure \$1;
#X floatatom 231 626 5 0 30 0 - - -;
#X floatatom 230 654 5 50 1000 0 - - -;
#X floatatom 231 681 5 0 1 0 - - -;
#X floatatom 235 707 5 0 1 0 - - -;
#X floatatom 234 733 5 0 1 0 - - -;
#X obj 10 787 faustgen~ instruments/violinMIDI;
#X msg 62 645 envAttack \$1;
#X msg 62 675 freq \$1;
#X msg 64 613 vibratoGain \$1;
#X floatatom 230 593 5 0 1 0 - - -;
#X floatatom 230 560 5 0 10 0 - - -;
#X msg 64 580 vibratoFrequency \$1;
#X floatatom 229 531 5 0 1 0 - - -;
#X msg 63 551 sustain \$1;
#X floatatom 229 504 5 0 1 0 - - -;
#X msg 63 524 gain \$1;
#X floatatom 227 475 5 0 10 0 - - -;
#X msg 61 495 bend \$1;
#X obj 22 225 / 10;
#X obj 73 226 / 100;
#X msg 624 375 0;
#X obj 14 97 cyclone/seq res/compo1.mid;
#X msg 301 652 print;
#X msg 380 743 outGain \$1;
#X floatatom 548 668 5 50 1000 0 - - -;
#X floatatom 553 696 5 0 1 0 - - -;
#X floatatom 552 722 5 0 1 0 - - -;
#X msg 380 689 freq \$1;
#X floatatom 546 639 5 0 1 0 - - -;
#X msg 380 659 sustain \$1;
#X floatatom 549 612 5 0 1 0 - - -;
#X msg 380 632 gain \$1;
#X floatatom 544 583 5 0 10 0 - - -;
#X msg 378 603 bend \$1;
#X obj 327 783 faustgen~ instruments/guitarMIDI;
#X msg 380 715 pluckPosition \$1;
#X obj 302 972 dac~;
#X obj 286 896 *~;
#X obj 394 843 vsl 15 128 0 1 0 0 empty empty empty 0 -9 0 10 -262144
-1 -1 0 1;
#X obj 607 48 table pitches;
#X obj 606 19 table velocities;
#X obj 19 351 tabwrite pitches;
#X floatatom 63 296 5 0 0 0 - - -;
#X obj 115 258 + 1;
#X floatatom 60 262 5 0 0 0 - - -;
#X obj 34 262 bng 15 250 50 0 empty empty empty 17 7 0 10 -262144 -1
-1;
#X obj 17 385 tabwrite velocities;
#X obj 444 292 f;
#X obj 478 293 + 1;
#X floatatom 446 363 5 0 0 0 - - -;
#X obj 284 240 bng 15 250 50 0 empty empty empty 17 7 0 10 -262144
-1 -1;
#X msg 496 239 stop;
#X floatatom 495 186 5 0 0 0 - - -;
#X obj 443 262 metro;
#X obj 446 327 %;
#X obj 357 409 tabread pitches;
#X obj 471 409 tabread velocities;
#X msg 14 61 start 1024;
#X msg 6 300 0;
#X text 110 293 Processing Pitches and Velocities;
#X text 538 185 Tempo;
#X text 567 291 Reading the melody in cycle;
#X text 32 0 Start reading MIDI file;
#X text 302 237 Start reading melody;
#X text 333 535 Instruments;
#X text 425 901 Master Volume;
#X obj 950 157 unpack;
#X obj 971 199 cyclone/comment 43 11 helvetica ? 0 0 0 0 Note in;
#X obj 950 187 nbx 3 14 -1e+037 1e+037 0 0 empty empty empty 0 -8 0
10 -228856 -1 -1 0 256;
#X obj 992 188 nbx 3 14 -1e+037 1e+037 0 0 empty empty empty 0 -8 0
10 -228856 -1 -1 0 256;
#X obj 999 158 unpack;
#X obj 948 131 cyclone/midiparse @hires 2, f 57;
#X obj 945 12 bng 15 250 50 0 empty empty empty 17 7 0 10 -262144 -1
-1;
#X obj 1174 7 bng 15 250 50 0 empty empty empty 17 7 0 10 -262144 -1
-1;
#X text 1196 4 Stop;
#X obj 952 228 / 10;
#X obj 1005 229 / 100;
#X obj 946 100 cyclone/seq res/compo1.mid;
#X obj 1539 51 table pitches;
#X obj 1538 22 table velocities;
#X obj 951 354 tabwrite pitches;
#X floatatom 995 299 5 0 0 0 - - -;
#X obj 1047 261 + 1;
#X floatatom 992 265 5 0 0 0 - - -;
#X obj 966 265 bng 15 250 50 0 empty empty empty 17 7 0 10 -262144
-1 -1;
#X obj 949 388 tabwrite velocities;
#X obj 1376 295 f;
#X obj 1410 296 + 1;
#X floatatom 1378 366 5 0 0 0 - - -;
#X msg 1428 242 stop;
#X floatatom 1427 189 5 0 0 0 - - -;
#X obj 1376 270 metro;
#X obj 1378 330 %;
#X obj 1289 412 tabread pitches;
#X obj 1403 412 tabread velocities;
#X msg 946 64 start 1024;
#X msg 917 301 0;
#X text 1470 188 Tempo;
#X text 964 3 Start reading MIDI file;
#X connect 0 0 10 0;
#X connect 0 1 11 0;
#X connect 10 0 45 0;
#X connect 10 0 72 0;
#X connect 11 0 46 0;
#X connect 12 0 13 0;
#X connect 12 1 14 0;
#X connect 15 0 16 0;
#X connect 15 1 17 0;
#X connect 18 0 0 0;
#X connect 18 1 12 0;
#X connect 18 2 15 0;
#X connect 18 3 9 0;
#X connect 18 4 8 0;
#X connect 18 5 22 0;
#X connect 18 6 7 0;
#X connect 19 0 85 0;
#X connect 19 0 84 0;
#X connect 20 0 78 0;
#X connect 24 0 32 0;
#X connect 25 0 32 0;
#X connect 26 0 32 0;
#X connect 27 0 33 0;
#X connect 28 0 34 0;
#X connect 29 0 26 0;
#X connect 30 0 25 0;
#X connect 31 0 24 0;
#X connect 32 0 64 0;
#X connect 33 0 32 0;
#X connect 34 0 32 0;
#X connect 35 0 32 0;
#X connect 36 0 35 0;
#X connect 37 0 38 0;
#X connect 38 0 32 0;
#X connect 39 0 40 0;
#X connect 40 0 32 0;
#X connect 41 0 42 0;
#X connect 42 0 32 0;
#X connect 43 0 44 0;
#X connect 44 0 32 0;
#X connect 45 0 68 0;
#X connect 46 0 73 0;
#X connect 47 0 39 0;
#X connect 47 0 55 0;
#X connect 48 0 18 0;
#X connect 48 1 77 0;
#X connect 49 0 61 0;
#X connect 49 0 32 0;
#X connect 50 0 61 0;
#X connect 51 0 54 0;
#X connect 52 0 62 0;
#X connect 53 0 50 0;
#X connect 54 0 61 0;
#X connect 55 0 56 0;
#X connect 56 0 61 0;
#X connect 57 0 58 0;
#X connect 58 0 61 0;
#X connect 59 0 60 0;
#X connect 60 0 61 0;
#X connect 61 0 64 0;
#X connect 62 0 61 0;
#X connect 64 0 63 0;
#X connect 64 0 63 1;
#X connect 65 0 64 1;
#X connect 69 0 68 1;
#X connect 69 0 70 1;
#X connect 69 0 73 1;
#X connect 69 0 81 1;
#X connect 70 0 69 0;
#X connect 71 0 70 0;
#X connect 72 0 71 0;
#X connect 74 0 75 0;
#X connect 74 0 81 0;
#X connect 75 0 74 1;
#X connect 76 0 82 0;
#X connect 76 0 83 0;
#X connect 77 0 80 0;
#X connect 78 0 80 0;
#X connect 78 0 47 0;
#X connect 79 0 80 1;
#X connect 80 0 74 0;
#X connect 81 0 76 0;
#X connect 82 0 43 0;
#X connect 82 0 60 0;
#X connect 83 0 39 0;
#X connect 83 0 56 0;
#X connect 84 0 48 0;
#X connect 85 0 69 0;
#X connect 93 0 95 0;
#X connect 93 1 96 0;
#X connect 95 0 102 0;
#X connect 95 0 111 0;
#X connect 96 0 103 0;
#X connect 98 0 93 0;
#X connect 98 1 97 0;
#X connect 99 0 123 0;
#X connect 99 0 122 0;
#X connect 100 0 116 0;
#X connect 102 0 107 0;
#X connect 103 0 112 0;
#X connect 104 0 98 0;
#X connect 104 1 118 0;
#X connect 108 0 107 1;
#X connect 108 0 109 1;
#X connect 108 0 112 1;
#X connect 108 0 119 1;
#X connect 109 0 108 0;
#X connect 110 0 109 0;
#X connect 111 0 110 0;
#X connect 113 0 114 0;
#X connect 113 0 119 0;
#X connect 114 0 113 1;
#X connect 115 0 120 0;
#X connect 115 0 121 0;
#X connect 116 0 118 0;
#X connect 117 0 118 1;
#X connect 118 0 113 0;
#X connect 119 0 115 0;
#X connect 122 0 104 0;
#X connect 123 0 108 0;
