#N canvas 810 7 1087 708 12;
#X obj 219 193 notein;
#X obj 226 242 pack;
#X obj 458 606 midiout;
#X obj 427 338 cyclone/midiformat;
#X obj 405 194 ctlin;
#X obj 337 468 bng 15 250 50 0 empty empty empty 17 7 0 10 -262144
-1 -1;
#X msg 487 419 stop;
#X obj 418 244 pack;
#X msg 546 419 record;
#X obj 427 519 cyclone/seq n.mid;
#X obj 482 194 pgmin;
#X obj 297 195 polytouchin;
#X obj 308 238 pack;
#X obj 548 197 touchin;
#X obj 624 198 bendin, f 7;
#X msg 601 372 write n.mid;
#X connect 0 0 1 0;
#X connect 0 1 1 1;
#X connect 0 2 3 6;
#X connect 1 0 3 0;
#X connect 3 0 9 0;
#X connect 3 0 2 0;
#X connect 4 0 7 0;
#X connect 4 1 7 1;
#X connect 5 0 9 0;
#X connect 6 0 9 0;
#X connect 7 0 3 2;
#X connect 8 0 9 0;
#X connect 9 0 2 0;
#X connect 10 0 3 3;
#X connect 11 0 12 0;
#X connect 11 1 12 1;
#X connect 12 0 3 1;
#X connect 13 0 3 4;
#X connect 14 0 3 5;
#X connect 15 0 8 0;
#X connect 15 0 9 0;
#X coords 0 0 1 1 85 60 0;
