#N canvas 844 126 867 566 12;
#X obj 162 169 oscparse;
#X obj 221 140 oscformat;
#X obj 160 218 list trim;
#X obj 160 266 unpack s f;
#X obj 170 367 outlet;
#X floatatom 313 352 5 0 0 0 - - -;
#X msg 120 49 listen \$1;
#X obj 134 100 netreceive -u -b \$1;
#X obj 274 20 inlet;
#X connect 0 0 2 0;
#X connect 1 0 0 0;
#X connect 2 0 3 0;
#X connect 3 1 4 0;
#X connect 3 1 5 0;
#X connect 6 0 7 0;
#X connect 7 0 0 0;
#X connect 8 0 6 0;
#X connect 8 0 7 0;
