#N canvas 953 0 958 988 12;
#X msg 142 347 freq \$1;
#X msg 216 346 sustain \$1;
#X msg 66 345 gain \$1;
#X msg 435 345 bend \$1;
#X msg 299 345 pluckPosition \$1;
#X msg 8 388 outGain 1;
#X obj 13 303 inlet;
#X obj 148 274 inlet;
#X obj 144 317 * 3;
#X obj 218 315 / 100;
#X obj 222 273 inlet;
#X obj 299 274 inlet;
#X obj 299 313 * 10;
#X obj 434 272 inlet;
#X obj 437 313 * 10;
#X obj 269 482 outlet~;
#X obj 221 418 faustgen~ FAUST_instruments/guitarMIDI;
#X connect 0 0 16 0;
#X connect 1 0 16 0;
#X connect 2 0 16 0;
#X connect 3 0 16 0;
#X connect 4 0 16 0;
#X connect 5 0 16 0;
#X connect 6 0 2 0;
#X connect 6 0 5 0;
#X connect 7 0 8 0;
#X connect 8 0 0 0;
#X connect 9 0 1 0;
#X connect 10 0 9 0;
#X connect 11 0 12 0;
#X connect 12 0 4 0;
#X connect 13 0 14 0;
#X connect 14 0 3 0;
#X connect 16 0 15 0;
