#N canvas 1912 166 1600 817 12;
#X obj 54 187 mtof;
#X obj 17 46 tabread notes;
#X floatatom 17 99 5 0 0 0 - - -;
#X obj 108 105 + 48;
#X obj 219 123 f;
#X obj 282 124 + 1;
#X floatatom 221 233 5 0 0 0 - - -;
#X obj 228 190 % 8;
#X obj 233 33 bng 15 250 50 0 empty empty empty 17 7 0 10 -262144 -1
-1;
#X msg 383 27 stop;
#X obj 288 51 metro 300;
#X obj 454 157 table notes 8;
#X msg 440 93 \; notes 0 12 6 4 0 12 6 8;
#X obj 1127 254 faustgen~ pitchShifter;
#X msg 1086 75 print;
#X msg 1176 77 shift1 \$1;
#X floatatom 1183 11 5 -12 12 0 - - -;
#X floatatom 1297 4 5 -12 12 0 - - -;
#X msg 1285 117 compile;
#X msg 1375 85 autocompile 1 100;
#X obj 1121 320 dac~ 1 2;
#X msg 1263 77 shift2 \$1;
#X obj 987 174 osc~ 220;
#X obj 71 320 dac~;
#X obj 55 243 osc~ 440;
#X obj 73 607 faustgen~ violin;
#X msg 54 529 print;
#X obj 87 689 dac~ 1 2;
#X msg 125 574 outGain \$1;
#X msg 125 546 position \$1;
#X msg 124 521 pressure \$1;
#X msg 125 495 velocity \$1;
#X msg 125 465 length \$1;
#X floatatom 294 446 5 0 2 0 - - -;
#X floatatom 293 474 5 0 1 0 - - -;
#X floatatom 294 501 5 0 1 0 - - -;
#X floatatom 298 527 5 0 1 0 - - -;
#X floatatom 298 559 5 0 1 0 - - -;
#X obj 932 582 faustgen~ flute;
#X msg 886 554 print;
#X floatatom 1215 542 5 0 1 0 - - -;
#X msg 614 572 compile;
#X msg 971 557 outGain \$1;
#X floatatom 1212 509 5 0 1 0 - - -;
#X floatatom 1210 485 5 0.01 3 0 - - -;
#X floatatom 1209 458 5 0 1 0 - - -;
#X floatatom 1207 431 5 0.1 10 0 - - -;
#X floatatom 1207 405 5 20 20000 0 - - -;
#X floatatom 1185 353 5 0 1 0 - - -;
#X floatatom 1206 382 5 0 1 0 - - -;
#X msg 974 530 mouthPosition \$1;
#X msg 973 503 tubeLength \$1;
#X msg 973 476 vibratoGain \$1;
#X msg 974 450 vibratoFreq \$1;
#X msg 974 424 breathCutoff \$1;
#X msg 973 402 breathGain \$1;
#X msg 971 377 pressure \$1;
#X obj 951 654 dac~ 1 2;
#X obj 510 697 faustgen~ WoodenKeyboard;
#X msg 491 639 print;
#X obj 511 757 dac~;
#X floatatom 685 627 5 1 10 0 - - -;
#X msg 571 663 instrumentHand \$1;
#X connect 0 0 24 0;
#X connect 1 0 2 0;
#X connect 2 0 3 0;
#X connect 3 0 0 0;
#X connect 4 0 5 0;
#X connect 4 0 7 0;
#X connect 5 0 4 1;
#X connect 6 0 1 0;
#X connect 7 0 6 0;
#X connect 8 0 10 0;
#X connect 9 0 10 0;
#X connect 10 0 4 0;
#X connect 14 0 13 0;
#X connect 15 0 13 0;
#X connect 16 0 15 0;
#X connect 17 0 21 0;
#X connect 18 0 13 0;
#X connect 19 0 13 0;
#X connect 21 0 13 0;
#X connect 22 0 13 0;
#X connect 22 0 13 1;
#X connect 26 0 25 0;
#X connect 28 0 25 0;
#X connect 29 0 25 0;
#X connect 30 0 25 0;
#X connect 31 0 25 0;
#X connect 32 0 25 0;
#X connect 33 0 32 0;
#X connect 34 0 31 0;
#X connect 35 0 30 0;
#X connect 36 0 29 0;
#X connect 37 0 28 0;
#X connect 39 0 38 0;
#X connect 40 0 42 0;
#X connect 41 0 25 0;
#X connect 41 0 13 0;
#X connect 41 0 38 0;
#X connect 41 0 58 0;
#X connect 42 0 38 0;
#X connect 43 0 50 0;
#X connect 44 0 51 0;
#X connect 45 0 52 0;
#X connect 46 0 53 0;
#X connect 47 0 54 0;
#X connect 48 0 56 0;
#X connect 49 0 55 0;
#X connect 50 0 38 0;
#X connect 51 0 38 0;
#X connect 52 0 38 0;
#X connect 53 0 38 0;
#X connect 54 0 38 0;
#X connect 55 0 38 0;
#X connect 56 0 38 0;
#X connect 58 0 60 0;
#X connect 58 0 60 1;
#X connect 59 0 58 0;
#X connect 61 0 62 0;
#X connect 62 0 58 0;
#X coords 0 0 1 1 85 60 0;
