#N canvas 811 137 1087 708 12;
#X obj 458 606 midiout;
#X obj 477 296 bng 15 250 50 0 empty empty empty 17 7 0 10 -262144
-1 -1;
#X msg 487 419 stop;
#X msg 546 419 record;
#X obj 474 212 bng 15 250 50 0 empty empty empty 17 7 0 10 -262144
-1 -1;
#X obj 477 253 bng 15 250 50 0 empty empty empty 17 7 0 10 -262144
-1 -1;
#X text 493 209 Start Recording;
#X text 496 250 Stop Recording;
#X text 493 293 Listen to sample;
#X obj 427 519 cyclone/seq ../MIDI_files/new_sample.mid;
#X obj 355 405 midiin;
#X msg 601 372 write ../MIDI_files/b.mid;
#X msg 522 481 write ../MIDI_files/b.mid;
#X connect 1 0 9 0;
#X connect 2 0 9 0;
#X connect 2 0 12 0;
#X connect 3 0 9 0;
#X connect 4 0 11 0;
#X connect 5 0 2 0;
#X connect 9 0 0 0;
#X connect 10 0 9 0;
#X connect 11 0 3 0;
#X connect 11 0 9 0;
#X connect 12 0 9 0;
#X coords 0 0 1 1 85 60 0;
