#N canvas -8 -8 1920 997 12;
#X floatatom 586 566 5 0 0 0 - - -;
#X msg 765 739 compile;
#X obj 669 804 faustgen~ WoodenKeyboard;
#X msg 554 673 print;
#X obj 875 896 dac~;
#X floatatom 748 661 5 0 10 0 - - -;
#X msg 688 585 instrumentHand \$1;
#X msg 648 663 hight \$1;
#X floatatom 707 288 5 0 0 0 - - -;
#X obj 872 306 nbx 5 14 0 1 0 0 empty empty empty 0 -8 0 10 -262144
-1 -1 0 256;
#X obj 812 131 oscparse;
#X obj 871 102 oscformat;
#X obj 810 180 list trim;
#X msg 770 11 listen 5000;
#X obj 785 63 netreceive -u -b 5000;
#X obj 860 848 *~;
#X text 878 264 volume;
#X text 750 288 tempo;
#X obj 798 226 unpack s f f f;
#X obj 663 364 nbx 5 14 -1e+037 1e+037 0 0 empty empty empty 0 -8 0
10 -262144 -1 -1 0 256;
#X text 740 374 pitch;
#X msg 441 102 stop;
#X obj 377 95 bng 15 250 50 0 empty empty empty 17 7 0 10 -262144 -1
-1;
#X obj 939 267 hsl 128 15 0 1 0 0 empty empty empty -2 -8 0 10 -262144
-1 -1 0 1;
#X obj 208 851 print;
#X obj 344 328 midiout;
#X floatatom 24 637 5 0 0 0 - - -;
#X floatatom 69 648 5 0 0 0 - - -;
#X obj 162 584 unpack;
#X floatatom 141 643 5 0 0 0 - - -;
#X floatatom 186 652 5 0 0 0 - - -;
#X obj 266 587 unpack;
#X floatatom 245 646 5 0 0 0 - - -;
#X floatatom 324 670 5 0 0 0 - - -;
#X floatatom 332 480 5 0 0 0 - - -;
#X floatatom 376 472 5 0 0 0 - - -;
#X floatatom 429 456 5 0 0 0 - - -;
#X floatatom 291 803 5 0 0 0 - - -;
#X obj 266 239 unpack;
#X floatatom 245 298 5 0 0 0 - - -;
#X floatatom 290 307 5 0 0 0 - - -;
#X obj 34 502 unpack;
#X obj 250 391 cyclone/midiparse @hires 2;
#X floatatom 294 548 5 0 0 0 - - -;
#X obj 122 0 nbx 5 14 -1e+037 1e+037 0 0 empty empty empty 0 -8 0 10
-262144 -1 -1 0 256;
#X floatatom 742 535 5 0 10 0 - - -;
#X obj 511 460 / 10;
#X obj 548 513 + 1;
#X obj 695 478 + 2;
#X obj 591 429 % 6;
#X msg 161 50 start 1024;
#X obj 172 713 / 100;
#X obj 193 794 *;
#X obj 388 218 cyclone/seq MIDI_sample.mid;
#X obj 619 477 * 2;
#X connect 0 0 7 0;
#X connect 1 0 2 0;
#X connect 2 0 15 0;
#X connect 6 0 2 0;
#X connect 7 0 2 0;
#X connect 9 0 15 1;
#X connect 10 0 12 0;
#X connect 11 0 10 0;
#X connect 12 0 18 0;
#X connect 13 0 14 0;
#X connect 14 0 10 0;
#X connect 15 0 4 0;
#X connect 15 0 4 1;
#X connect 18 1 8 0;
#X connect 18 2 9 0;
#X connect 18 3 19 0;
#X connect 21 0 53 0;
#X connect 22 0 53 0;
#X connect 23 0 15 1;
#X connect 26 0 52 0;
#X connect 27 0 51 0;
#X connect 28 0 29 0;
#X connect 28 1 30 0;
#X connect 31 0 32 0;
#X connect 31 1 33 0;
#X connect 37 0 46 0;
#X connect 37 0 49 0;
#X connect 38 0 39 0;
#X connect 38 1 40 0;
#X connect 41 0 26 0;
#X connect 41 1 27 0;
#X connect 42 0 41 0;
#X connect 42 1 28 0;
#X connect 42 2 31 0;
#X connect 42 3 43 0;
#X connect 42 4 34 0;
#X connect 42 5 35 0;
#X connect 42 6 36 0;
#X connect 45 0 6 0;
#X connect 46 0 47 0;
#X connect 47 0 0 0;
#X connect 48 0 45 0;
#X connect 49 0 54 0;
#X connect 50 0 53 0;
#X connect 51 0 52 1;
#X connect 52 0 24 0;
#X connect 52 0 37 0;
#X connect 53 0 25 0;
#X connect 53 1 50 0;
#X connect 54 0 48 0;
#X coords 0 0 1 1 85 60 0;
