#N canvas 443 88 1407 817 12;
#X obj 34 122 mtof;
#X obj 219 297 tabread notes;
#X floatatom 490 502 5 0 0 0 - - -;
#X obj 219 123 f;
#X obj 282 124 + 1;
#X floatatom 221 233 5 0 0 0 - - -;
#X obj 233 33 bng 15 250 50 0 empty empty empty 17 7 0 10 -262144 -1
-1;
#X msg 336 13 stop;
#X obj 1231 457 faustgen~ pitchShifter;
#X msg 1190 278 print;
#X msg 1280 280 shift1 \$1;
#X floatatom 1274 215 5 -12 12 0 - - -;
#X floatatom 1388 208 5 -12 12 0 - - -;
#X msg 1389 320 compile;
#X msg 1479 288 autocompile 1 100;
#X obj 1225 523 dac~ 1 2;
#X msg 1367 280 shift2 \$1;
#X obj 1091 377 osc~ 220;
#X obj 25 253 dac~;
#X obj 30 185 osc~ 440;
#X obj 73 607 faustgen~ violin;
#X msg 54 529 print;
#X obj 87 689 dac~ 1 2;
#X msg 125 574 outGain \$1;
#X msg 125 546 position \$1;
#X msg 124 521 pressure \$1;
#X msg 125 495 velocity \$1;
#X msg 125 465 length \$1;
#X floatatom 294 446 5 0 2 0 - - -;
#X floatatom 293 474 5 0 1 0 - - -;
#X floatatom 294 501 5 0 1 0 - - -;
#X floatatom 298 527 5 0 1 0 - - -;
#X floatatom 298 559 5 0 1 0 - - -;
#X obj 1036 785 faustgen~ flute;
#X msg 990 757 print;
#X floatatom 1320 742 5 0 1 0 - - -;
#X msg 603 503 compile;
#X msg 1075 760 outGain \$1;
#X floatatom 1316 712 5 0 1 0 - - -;
#X floatatom 1314 688 5 0.01 3 0 - - -;
#X floatatom 1313 661 5 0 1 0 - - -;
#X floatatom 1311 634 5 0.1 10 0 - - -;
#X floatatom 1311 608 5 20 20000 0 - - -;
#X floatatom 1289 556 5 0 1 0 - - -;
#X floatatom 1310 585 5 0 1 0 - - -;
#X msg 1078 733 mouthPosition \$1;
#X msg 1077 706 tubeLength \$1;
#X msg 1077 679 vibratoGain \$1;
#X msg 1078 653 vibratoFreq \$1;
#X msg 1078 627 breathCutoff \$1;
#X msg 1077 605 breathGain \$1;
#X msg 1075 580 pressure \$1;
#X obj 1055 857 dac~ 1 2;
#X obj 596 775 faustgen~ WoodenKeyboard;
#X msg 446 638 print;
#X obj 507 916 dac~;
#X floatatom 640 626 5 0 10 0 - - -;
#X msg 526 662 instrumentHand \$1;
#X msg 540 628 hight \$1;
#X floatatom 707 288 5 0 0 0 - - -;
#X obj 288 51 metro;
#X obj 228 190 % 8;
#X obj 434 64 table notes 8;
#X msg 407 19 \; notes 0 7 5 4 10 7 5 4;
#X obj 872 306 nbx 5 14 0 1 0 0 empty empty empty 0 -8 0 10 -262144
-1 -1 0 256;
#X obj 812 131 oscparse;
#X obj 871 102 oscformat;
#X obj 810 180 list trim;
#X msg 770 11 listen 5000;
#X obj 785 63 netreceive -u -b 5000;
#X obj 720 842 *~;
#X text 939 292 volume;
#X obj 30 59 + 48;
#X text 750 288 tempo;
#X obj 798 226 unpack s f f f;
#X obj 500 422 +;
#X obj 663 364 nbx 5 14 -1e+037 1e+037 0 0 empty empty empty 0 -8 0
10 -262144 -1 -1 0 256;
#X text 740 374 pitch;
#X msg 439 104 stop;
#X obj 370 122 tgl 15 0 empty empty empty 17 7 0 10 -262144 -1 -1 0
1;
#X obj 383 92 bng 15 250 50 0 empty empty empty 17 7 0 10 -262144 -1
-1;
#X obj 37 37;
#X obj 448 286 nbx 5 14 -1e+037 1e+037 0 0 empty empty empty 0 -8 0
10 -262144 -1 -1 100 256;
#X obj 985 199 hsl 128 15 0 1 0 0 empty empty empty -2 -8 0 10 -262144
-1 -1 0 1;
#X obj 389 220 cyclone/seq piano.mid;
#X obj 487 352 % 1;
#X connect 0 0 19 0;
#X connect 1 0 75 0;
#X connect 2 0 57 0;
#X connect 2 0 58 0;
#X connect 3 0 4 0;
#X connect 3 0 61 0;
#X connect 4 0 3 1;
#X connect 5 0 1 0;
#X connect 6 0 60 0;
#X connect 7 0 60 0;
#X connect 9 0 8 0;
#X connect 10 0 8 0;
#X connect 11 0 10 0;
#X connect 12 0 16 0;
#X connect 13 0 8 0;
#X connect 14 0 8 0;
#X connect 16 0 8 0;
#X connect 17 0 8 0;
#X connect 17 0 8 1;
#X connect 21 0 20 0;
#X connect 23 0 20 0;
#X connect 24 0 20 0;
#X connect 25 0 20 0;
#X connect 26 0 20 0;
#X connect 27 0 20 0;
#X connect 28 0 27 0;
#X connect 29 0 26 0;
#X connect 30 0 25 0;
#X connect 31 0 24 0;
#X connect 32 0 23 0;
#X connect 33 0 52 0;
#X connect 33 1 52 1;
#X connect 34 0 33 0;
#X connect 35 0 37 0;
#X connect 36 0 20 0;
#X connect 36 0 8 0;
#X connect 36 0 33 0;
#X connect 36 0 53 0;
#X connect 37 0 33 0;
#X connect 38 0 45 0;
#X connect 39 0 46 0;
#X connect 40 0 47 0;
#X connect 41 0 48 0;
#X connect 42 0 49 0;
#X connect 43 0 51 0;
#X connect 44 0 50 0;
#X connect 45 0 33 0;
#X connect 46 0 33 0;
#X connect 47 0 33 0;
#X connect 48 0 33 0;
#X connect 49 0 33 0;
#X connect 50 0 33 0;
#X connect 51 0 33 0;
#X connect 53 0 70 0;
#X connect 54 0 53 0;
#X connect 57 0 53 0;
#X connect 58 0 53 0;
#X connect 59 0 60 1;
#X connect 60 0 3 0;
#X connect 61 0 5 0;
#X connect 64 0 70 1;
#X connect 65 0 67 0;
#X connect 66 0 65 0;
#X connect 67 0 74 0;
#X connect 68 0 69 0;
#X connect 69 0 65 0;
#X connect 70 0 55 0;
#X connect 70 0 55 1;
#X connect 72 0 0 0;
#X connect 74 1 59 0;
#X connect 74 2 64 0;
#X connect 74 3 76 0;
#X connect 75 0 2 0;
#X connect 76 0 75 1;
#X connect 78 0 84 0;
#X connect 79 0 84 0;
#X connect 80 0 84 0;
#X connect 83 0 64 0;
#X connect 84 0 82 0;
#X connect 84 0 75 0;
#X connect 84 1 80 0;
#X connect 85 0 75 0;
#X coords 0 0 1 1 85 60 0;
