#N canvas -8 -8 1920 997 12;
#X obj 432 819 midiout;
#X msg 180 40 stop;
#X obj 422 739 cyclone/midiflush;
#X obj 698 350 bng 15 250 50 0 empty empty empty 17 7 0 10 -262144
-1 -1;
#X obj 128 311 unpack;
#X obj 250 368 cyclone/comment 50 11 helvetica ? 0 0 0 0 Control;
#X obj 348 358 cyclone/comment 50 11 helvetica ? 0 0 0 0 Aftertouch
;
#X obj 671 465 cyclone/comment 0 11 helvetica ? 0 0 0 0 Pitch Bend
;
#X obj 499 342 cyclone/comment 0 11 helvetica ? 0 0 0 0 Channel;
#X obj 117 367 cyclone/comment 43 11 helvetica ? 0 0 0 0 Note in;
#X obj 184 368 cyclone/comment 0 11 helvetica ? 0 0 0 0 Poly touch
;
#X obj 673 541 cyclone/comment 0 11 helvetica ? 0 0 0 0 Program;
#X obj 467 340 nbx 2 14 -1e+037 1e+037 0 0 empty empty empty 0 -8 0
10 -228856 -1 -1 10 256;
#X obj 614 466 nbx 5 14 -1e+037 1e+037 0 0 empty empty empty 0 -8 0
10 -228856 -1 -1 12 256;
#X obj 354 340 nbx 3 14 -1e+037 1e+037 0 0 empty empty empty 0 -8 0
10 -228856 -1 -1 3 256;
#X obj 628 543 nbx 3 14 -1e+037 1e+037 0 0 empty empty empty 0 -8 0
10 -228856 -1 -1 26 256;
#X obj 91 350 nbx 3 14 -1e+037 1e+037 0 0 empty empty empty 0 -8 0
10 -228856 -1 -1 36 256;
#X obj 130 350 nbx 3 14 -1e+037 1e+037 0 0 empty empty empty 0 -8 0
10 -228856 -1 -1 74 256;
#X obj 184 311 unpack;
#X obj 169 351 nbx 3 14 -1e+037 1e+037 0 0 empty empty empty 0 -8 0
10 -228856 -1 -1 0 256;
#X obj 204 351 nbx 3 14 -1e+037 1e+037 0 0 empty empty empty 0 -8 0
10 -228856 -1 -1 0 256;
#X obj 241 311 unpack;
#X obj 247 348 nbx 3 14 -1e+037 1e+037 0 0 empty empty empty 0 -8 0
10 -228856 -1 -1 121 256;
#X obj 291 351 nbx 3 14 -1e+037 1e+037 0 0 empty empty empty 0 -8 0
10 -228856 -1 -1 0 256;
#X obj 479 354 cyclone/comment 215 11 helvetica ? 0 0 0 0 (-8192 to
8191 in @hires 2);
#X obj 315 607 cyclone/midiformat;
#X obj 114 401 pack;
#X obj 195 411 pack;
#X obj 264 405 pack;
#X floatatom 617 507 5 0 0 0 - - -;
#X obj 45 371 +;
#X obj 128 287 cyclone/midiparse @hires 2, f 57;
#X obj 590 598 cyclone/comment 0 11 helvetica ? 0 0 0 0 comment;
#X text 658 510 Add to note;
#X msg 60 104 start \$1;
#X floatatom 89 69 5 0 0 0 - - -;
#X obj 86 157 cyclone/seq MIDI_sample.mid;
#X obj 115 25 bng 15 250 50 0 empty empty empty 17 7 0 10 -262144 -1
-1;
#X text 366 48 ne redémarre pas au tempo demandé (rajout d'un bang)
;
#X connect 1 0 3 0;
#X connect 1 0 36 0;
#X connect 2 0 0 0;
#X connect 3 0 2 0;
#X connect 4 0 16 0;
#X connect 4 1 17 0;
#X connect 12 0 25 6;
#X connect 13 0 25 5;
#X connect 14 0 25 4;
#X connect 15 0 25 3;
#X connect 16 0 30 0;
#X connect 17 0 26 1;
#X connect 18 0 19 0;
#X connect 18 1 20 0;
#X connect 19 0 27 0;
#X connect 20 0 27 1;
#X connect 21 0 22 0;
#X connect 21 1 23 0;
#X connect 22 0 28 0;
#X connect 23 0 28 1;
#X connect 25 0 2 0;
#X connect 26 0 25 0;
#X connect 27 0 25 1;
#X connect 28 0 25 2;
#X connect 29 0 30 1;
#X connect 29 0 3 0;
#X connect 30 0 26 0;
#X connect 31 0 4 0;
#X connect 31 1 18 0;
#X connect 31 2 21 0;
#X connect 31 3 15 0;
#X connect 31 4 14 0;
#X connect 31 5 13 0;
#X connect 31 6 12 0;
#X connect 34 0 36 0;
#X connect 35 0 34 0;
#X connect 36 0 31 0;
#X connect 36 1 3 0;
#X connect 36 1 37 0;
#X connect 37 0 35 0;
