#N canvas -8 -8 1920 997 12;
#X msg 158 209 freq \$1;
#X msg 227 208 sustain \$1;
#X msg 93 209 gain \$1;
#X msg 540 205 bend \$1;
#X msg 41 389 outGain 1;
#X obj 14 163 inlet;
#X obj 145 133 inlet;
#X obj 156 177 * 3;
#X obj 223 178 / 100;
#X obj 218 135 inlet;
#X obj 419 131 inlet;
#X obj 422 173 * 10;
#X obj 537 130 inlet;
#X obj 537 171 * 10;
#X obj 401 324 outlet~;
#X obj 224 263 faustgen~ FAUST_instruments/clarinetMIDI;
#X msg 423 205 vibratoFreq \$1;
#X msg 316 208 envAttack \$1;
#X obj 307 137 inlet;
#X obj 313 177 * 30;
#X msg 117 390 vibratoGain 1;
#X msg 222 391 reedStiffness 0.45;
#X msg 359 391 bellOpening 0.75;
#X connect 0 0 15 0;
#X connect 1 0 15 0;
#X connect 2 0 15 0;
#X connect 3 0 15 0;
#X connect 4 0 15 0;
#X connect 5 0 2 0;
#X connect 5 0 4 0;
#X connect 5 0 20 0;
#X connect 5 0 21 0;
#X connect 5 0 22 0;
#X connect 6 0 7 0;
#X connect 7 0 0 0;
#X connect 8 0 1 0;
#X connect 9 0 8 0;
#X connect 10 0 11 0;
#X connect 11 0 16 0;
#X connect 12 0 13 0;
#X connect 13 0 3 0;
#X connect 15 0 14 0;
#X connect 16 0 15 0;
#X connect 17 0 15 0;
#X connect 18 0 19 0;
#X connect 19 0 17 0;
#X connect 20 0 15 0;
#X connect 21 0 15 0;
#X connect 22 0 15 0;
