#N canvas 632 51 1038 988 12;
#X msg 298 184 envAttack \$1;
#X msg 146 183 freq \$1;
#X msg 395 184 vibratoFrequency \$1;
#X msg 210 183 sustain \$1;
#X msg 80 184 gain \$1;
#X msg 544 183 bend \$1;
#X obj 596 318 outlet~;
#X msg 42 328 vibratoGain 1;
#X msg 152 327 pressure 0.55;
#X msg 260 326 position 0.8;
#X msg 360 325 outGain 1;
#X obj 175 154 * 3;
#X obj 302 154 * 30;
#X obj 394 152 * 10;
#X obj 542 150 * 10;
#X obj 227 156 / 100;
#X text -47 91 ~;
#X obj 10 164 inlet;
#X obj 172 107 inlet;
#X obj 248 117 inlet;
#X obj 304 116 inlet;
#X obj 391 113 inlet;
#X obj 473 113 inlet;
#X obj 442 234 faustgen~ FAUST_instruments/violinMIDI;
#X connect 0 0 23 0;
#X connect 1 0 23 0;
#X connect 2 0 23 0;
#X connect 3 0 23 0;
#X connect 4 0 23 0;
#X connect 5 0 23 0;
#X connect 7 0 23 0;
#X connect 8 0 23 0;
#X connect 9 0 23 0;
#X connect 10 0 23 0;
#X connect 11 0 1 0;
#X connect 12 0 0 0;
#X connect 13 0 2 0;
#X connect 14 0 5 0;
#X connect 15 0 3 0;
#X connect 17 0 4 0;
#X connect 17 0 7 0;
#X connect 17 0 8 0;
#X connect 17 0 9 0;
#X connect 17 0 10 0;
#X connect 18 0 11 0;
#X connect 19 0 15 0;
#X connect 20 0 12 0;
#X connect 21 0 13 0;
#X connect 22 0 14 0;
#X connect 23 0 6 0;
