#N canvas 795 95 958 988 12;
#X floatatom 60 156 5 0 0 0 - - -;
#X floatatom 112 266 5 0 0 0 - - -;
#X floatatom 172 94 5 0 0 0 - - -;
#X obj 112 191 /;
#X obj 111 230 pow -1;
#X obj 176 166 *;
#X obj 60 78 inlet;
#X obj 172 53 inlet;
#X obj 60 128 + 512;
#X obj 60 104 * 3584;
#X obj 112 295 expr if($f1 == 0 \, 1 \, $f1) \;;
#X obj 110 335 outlet;
#X obj 258 49 inlet;
#X connect 0 0 3 0;
#X connect 1 0 10 0;
#X connect 2 0 3 1;
#X connect 2 0 5 1;
#X connect 3 0 4 0;
#X connect 3 0 5 0;
#X connect 4 0 1 0;
#X connect 5 0 2 0;
#X connect 6 0 9 0;
#X connect 7 0 2 0;
#X connect 7 0 0 0;
#X connect 8 0 0 0;
#X connect 9 0 8 0;
#X connect 10 0 11 0;
#X connect 12 0 0 0;
