#N canvas 1223 18 435 460 12;
#X floatatom 24 85 5 0 1 0 - - -;
#X obj 33 205 oscformat /ramp1;
#X obj 46 249 list prepend send;
#X obj 45 293 list trim;
#X obj 98 404 netsend -u -b;
#X msg 132 323 connect localhost 5000;
#X msg 142 359 disconnect;
#X floatatom 76 80 5 0 1 0 - - -;
#X floatatom 126 83 5 0 1 0 - - -;
#X floatatom 186 82 5 0 1 0 - - -;
#X text 66 61 Tempo;
#X obj 75 115 pack f f f f;
#X text 20 61 Volume;
#X obj 95 15 bng 15 250 50 0 empty empty empty 17 7 0 10 -262144 -1
-1;
#X text 120 11 Send;
#X text 172 59 Vibrato;
#X text 106 60 Fréquence;
#X connect 0 0 11 0;
#X connect 1 0 2 0;
#X connect 2 0 3 0;
#X connect 3 0 4 0;
#X connect 5 0 4 0;
#X connect 6 0 4 0;
#X connect 7 0 11 1;
#X connect 8 0 11 2;
#X connect 9 0 11 3;
#X connect 11 0 1 0;
#X connect 13 0 0 0;
