#N canvas 563 0 801 646 12;
#X obj 17 165 unpack;
#X obj 198 213 cyclone/comment 50 11 helvetica ? 0 0 0 0 Control;
#X obj 312 214 cyclone/comment 50 11 helvetica ? 0 0 0 0 Aftertouch
;
#X obj 425 207 cyclone/comment 0 11 helvetica ? 0 0 0 0 Channel;
#X obj 38 207 cyclone/comment 43 11 helvetica ? 0 0 0 0 Note in;
#X obj 111 215 cyclone/comment 0 11 helvetica ? 0 0 0 0 Poly touch
;
#X obj 262 214 cyclone/comment 0 11 helvetica ? 0 0 0 0 Program;
#X obj 428 186 nbx 2 14 -1e+037 1e+037 0 0 empty empty empty 0 -8 0
10 -228856 -1 -1 0 256;
#X obj 314 198 nbx 3 14 -1e+037 1e+037 0 0 empty empty empty 0 -8 0
10 -228856 -1 -1 0 256;
#X obj 264 198 nbx 3 14 -1e+037 1e+037 0 0 empty empty empty 0 -8 0
10 -228856 -1 -1 0 256;
#X obj 17 195 nbx 3 14 -1e+037 1e+037 0 0 empty empty empty 0 -8 0
10 -228856 -1 -1 0 256;
#X obj 59 196 nbx 3 14 -1e+037 1e+037 0 0 empty empty empty 0 -8 0
10 -228856 -1 -1 0 256;
#X obj 66 166 unpack;
#X obj 97 197 nbx 3 14 -1e+037 1e+037 0 0 empty empty empty 0 -8 0
10 -228856 -1 -1 0 256;
#X obj 136 198 nbx 3 14 -1e+037 1e+037 0 0 empty empty empty 0 -8 0
10 -228856 -1 -1 0 256;
#X obj 119 166 unpack;
#X obj 179 199 nbx 3 14 -1e+037 1e+037 0 0 empty empty empty 0 -8 0
10 -228856 -1 -1 0 256;
#X obj 221 198 nbx 3 14 -1e+037 1e+037 0 0 empty empty empty 0 -8 0
10 -228856 -1 -1 0 256;
#X obj 15 139 cyclone/midiparse @hires 2, f 57;
#X obj 13 9 bng 15 250 50 0 empty empty empty 17 7 0 10 -262144 -1
-1;
#X obj 360 197 nbx 5 14 -1e+037 1e+037 0 0 empty empty empty 0 -8 0
10 -262144 -1 -1 0 256;
#X text 369 215 pitch;
#X obj 347 585 dac~;
#X obj 331 509 *~;
#X obj 426 456 vsl 15 128 0 1 0 0 empty empty empty 0 -9 0 10 -262144
-1 -1 0 1;
#X text 32 0 Start reading MIDI file;
#X text 209 394 Instruments;
#X text 470 514 Master Volume;
#X msg 608 150 listen 5000;
#X obj 609 179 netreceive -u -b 5000;
#X text 493 180 Receiving Data;
#X msg 409 108 hook \$1;
#X obj 189 76 bng 15 250 50 0 empty empty empty 17 7 0 10 -262144 -1
-1;
#X text 208 72 Relance la lecture;
#X msg 220 4 stop;
#X msg 201 307 0, f 2;
#X obj 109 234 bng 15 250 50 0 empty empty empty 17 7 0 10 -262144
-1 -1;
#X msg 13 62 start \$1;
#X obj 608 215 util/OSCParser;
#X obj 52 397 instruments/Violin;
#X obj 323 390 instruments/Guitar;
#X obj 460 82 util/TempoFixer;
#X msg 88 35 1024;
#X text 74 301 Gain;
#X text 167 286 Reset sustain;
#X text 288 279 Bend;
#X obj 17 228 mtof;
#X obj 61 228 mtof;
#X msg 317 24 1024;
#X obj 17 249 int;
#X obj 62 249 int;
#X obj 7 107 cyclone/seq MIDI_files/MIDI_sample_short.mid;
#X msg 288 306 0.5;
#X msg 95 327 1, f 2;
#X msg 67 328 1, f 2;
#X connect 0 0 10 0;
#X connect 0 1 11 0;
#X connect 10 0 46 0;
#X connect 11 0 47 0;
#X connect 12 0 13 0;
#X connect 12 1 14 0;
#X connect 15 0 16 0;
#X connect 15 1 17 0;
#X connect 18 0 0 0;
#X connect 18 1 12 0;
#X connect 18 2 15 0;
#X connect 18 3 9 0;
#X connect 18 4 8 0;
#X connect 18 5 20 0;
#X connect 18 6 7 0;
#X connect 19 0 52 0;
#X connect 19 0 36 0;
#X connect 19 0 42 0;
#X connect 23 0 22 0;
#X connect 23 0 22 1;
#X connect 24 0 23 1;
#X connect 28 0 29 0;
#X connect 29 0 38 0;
#X connect 31 0 51 0;
#X connect 32 0 51 0;
#X connect 34 0 35 0;
#X connect 34 0 48 0;
#X connect 34 0 51 0;
#X connect 35 0 39 2;
#X connect 35 0 40 2;
#X connect 36 0 53 0;
#X connect 36 0 54 0;
#X connect 37 0 51 0;
#X connect 38 0 24 0;
#X connect 38 1 41 0;
#X connect 38 2 40 4;
#X connect 38 2 39 5;
#X connect 38 3 39 4;
#X connect 39 0 23 0;
#X connect 40 0 23 0;
#X connect 41 0 31 0;
#X connect 42 0 37 0;
#X connect 42 0 41 1;
#X connect 46 0 49 0;
#X connect 47 0 50 0;
#X connect 48 0 41 2;
#X connect 49 0 40 1;
#X connect 49 0 39 1;
#X connect 50 0 40 2;
#X connect 50 0 39 2;
#X connect 51 0 18 0;
#X connect 51 1 32 0;
#X connect 52 0 39 5;
#X connect 52 0 40 4;
#X connect 53 0 40 0;
#X connect 54 0 39 0;
