#N canvas 1187 132 958 988 12;
#X obj 18 154 unpack;
#X obj 199 202 cyclone/comment 50 11 helvetica ? 0 0 0 0 Control;
#X obj 313 203 cyclone/comment 50 11 helvetica ? 0 0 0 0 Aftertouch
;
#X obj 425 207 cyclone/comment 0 11 helvetica ? 0 0 0 0 Channel;
#X obj 39 196 cyclone/comment 43 11 helvetica ? 0 0 0 0 Note in;
#X obj 112 204 cyclone/comment 0 11 helvetica ? 0 0 0 0 Poly touch
;
#X obj 263 203 cyclone/comment 0 11 helvetica ? 0 0 0 0 Program;
#X obj 428 186 nbx 2 14 -1e+037 1e+037 0 0 empty empty empty 0 -8 0
10 -228856 -1 -1 0 256;
#X obj 315 187 nbx 3 14 -1e+037 1e+037 0 0 empty empty empty 0 -8 0
10 -228856 -1 -1 0 256;
#X obj 265 187 nbx 3 14 -1e+037 1e+037 0 0 empty empty empty 0 -8 0
10 -228856 -1 -1 0 256;
#X obj 18 184 nbx 3 14 -1e+037 1e+037 0 0 empty empty empty 0 -8 0
10 -228856 -1 -1 0 256;
#X obj 60 185 nbx 3 14 -1e+037 1e+037 0 0 empty empty empty 0 -8 0
10 -228856 -1 -1 0 256;
#X obj 67 155 unpack;
#X obj 98 186 nbx 3 14 -1e+037 1e+037 0 0 empty empty empty 0 -8 0
10 -228856 -1 -1 0 256;
#X obj 137 187 nbx 3 14 -1e+037 1e+037 0 0 empty empty empty 0 -8 0
10 -228856 -1 -1 0 256;
#X obj 120 155 unpack;
#X obj 180 188 nbx 3 14 -1e+037 1e+037 0 0 empty empty empty 0 -8 0
10 -228856 -1 -1 0 256;
#X obj 222 187 nbx 3 14 -1e+037 1e+037 0 0 empty empty empty 0 -8 0
10 -228856 -1 -1 0 256;
#X obj 16 128 cyclone/midiparse @hires 2, f 57;
#X obj 13 9 bng 15 250 50 0 empty empty empty 17 7 0 10 -262144 -1
-1;
#X obj 361 186 nbx 5 14 -1e+037 1e+037 0 0 empty empty empty 0 -8 0
10 -262144 -1 -1 0 256;
#X text 370 204 pitch;
#X msg 56 541 outGain \$1;
#X msg 56 513 position \$1;
#X msg 55 488 pressure \$1;
#X floatatom 207 415 5 0 30 0 - - -;
#X floatatom 210 522 5 0 1 0 - - -;
#X obj 4 574 faustgen~ instruments/violinMIDI;
#X msg 56 432 envAttack \$1;
#X msg 56 462 freq \$1;
#X msg 58 400 vibratoGain \$1;
#X floatatom 206 349 5 0 10 0 - - -;
#X msg 58 367 vibratoFrequency \$1;
#X floatatom 205 320 5 0 1 0 - - -;
#X msg 57 338 sustain \$1;
#X floatatom 205 293 5 0 1 0 - - -;
#X msg 57 311 gain \$1;
#X floatatom 203 264 5 0 10 0 - - -;
#X msg 55 282 bend \$1;
#X obj 73 226 / 100;
#X msg 486 238 0;
#X msg 5 673 print;
#X msg 374 530 outGain \$1;
#X floatatom 547 483 5 0 1 0 - - -;
#X floatatom 548 514 5 0 1 0 - - -;
#X msg 374 476 freq \$1;
#X floatatom 540 426 5 0 1 0 - - -;
#X msg 374 446 sustain \$1;
#X floatatom 543 399 5 0 1 0 - - -;
#X msg 374 419 gain \$1;
#X floatatom 538 370 5 0 10 0 - - -;
#X msg 372 390 bend \$1;
#X obj 321 570 faustgen~ instruments/guitarMIDI;
#X msg 374 502 pluckPosition \$1;
#X obj 296 759 dac~;
#X obj 280 683 *~;
#X obj 375 630 vsl 15 128 0 1 0 0 empty empty empty 0 -9 0 10 -262144
-1 -1 0 1;
#X msg 14 61 start 1024;
#X text 32 0 Start reading MIDI file;
#X text 309 320 Instruments;
#X text 419 688 Master Volume;
#X msg 751 219 listen 5000;
#X obj 754 277 OSCParser;
#X obj 752 248 netreceive -u -b 5000;
#X text 636 249 Receiving Data;
#X obj 819 309 * 30;
#X obj 399 77 unpack s f;
#X msg 315 49 hook \$1;
#X obj 239 97 bng 15 250 50 0 empty empty empty 17 7 0 10 -262144 -1
-1;
#X floatatom 551 15 5 0 0 0 - - -;
#X obj 502 36 /;
#X obj 551 58 *;
#X text 256 94 Relance la lecture;
#X text 590 14 Tempo;
#X msg 216 4 stop;
#X floatatom 448 3 5 0 0 0 - - -;
#X obj 874 307 * 10;
#X msg 206 386 1;
#X msg 555 281 1.75;
#X obj 14 95 cyclone/seq res/piano.mid;
#X obj 3 260 * 5;
#X msg 208 460 0.55;
#X msg 207 492 0.8;
#X obj 764 311 * 2048;
#X floatatom 758 440 5 1 2048 0 - - -;
#X obj 762 378 * -1;
#X obj 762 347 - 2048;
#X obj 762 405 max 100;
#X obj 501 114 / 1;
#X msg 265 5 1024;
#X connect 0 0 10 0;
#X connect 0 1 11 0;
#X connect 10 0 80 0;
#X connect 11 0 39 0;
#X connect 12 0 13 0;
#X connect 12 1 14 0;
#X connect 15 0 16 0;
#X connect 15 1 17 0;
#X connect 18 0 0 0;
#X connect 18 1 12 0;
#X connect 18 2 15 0;
#X connect 18 3 9 0;
#X connect 18 4 8 0;
#X connect 18 5 20 0;
#X connect 18 6 7 0;
#X connect 19 0 57 0;
#X connect 22 0 27 0;
#X connect 23 0 27 0;
#X connect 24 0 27 0;
#X connect 25 0 28 0;
#X connect 26 0 22 0;
#X connect 27 0 55 0;
#X connect 28 0 27 0;
#X connect 29 0 27 0;
#X connect 30 0 27 0;
#X connect 31 0 32 0;
#X connect 32 0 27 0;
#X connect 33 0 34 0;
#X connect 34 0 27 0;
#X connect 35 0 36 0;
#X connect 36 0 27 0;
#X connect 37 0 38 0;
#X connect 38 0 27 0;
#X connect 39 0 33 0;
#X connect 39 0 47 0;
#X connect 39 0 46 0;
#X connect 40 0 33 0;
#X connect 40 0 46 0;
#X connect 41 0 52 0;
#X connect 41 0 27 0;
#X connect 42 0 52 0;
#X connect 43 0 53 0;
#X connect 44 0 42 0;
#X connect 45 0 52 0;
#X connect 46 0 47 0;
#X connect 47 0 52 0;
#X connect 48 0 49 0;
#X connect 49 0 52 0;
#X connect 50 0 51 0;
#X connect 51 0 52 0;
#X connect 52 0 55 0;
#X connect 53 0 52 0;
#X connect 55 0 54 0;
#X connect 55 0 54 1;
#X connect 56 0 55 1;
#X connect 57 0 66 0;
#X connect 57 0 77 0;
#X connect 57 0 78 0;
#X connect 57 0 79 0;
#X connect 61 0 63 0;
#X connect 62 0 56 0;
#X connect 62 1 83 0;
#X connect 62 2 65 0;
#X connect 62 2 43 0;
#X connect 62 3 76 0;
#X connect 63 0 62 0;
#X connect 65 0 25 0;
#X connect 66 1 88 0;
#X connect 67 0 79 0;
#X connect 68 0 79 0;
#X connect 69 0 70 1;
#X connect 69 0 71 1;
#X connect 70 0 71 0;
#X connect 70 0 75 0;
#X connect 71 0 69 0;
#X connect 74 0 89 0;
#X connect 74 0 40 0;
#X connect 74 0 79 0;
#X connect 75 0 67 0;
#X connect 76 0 31 0;
#X connect 76 0 43 0;
#X connect 77 0 30 0;
#X connect 78 0 50 0;
#X connect 79 0 18 0;
#X connect 79 1 68 0;
#X connect 80 0 29 0;
#X connect 80 0 45 0;
#X connect 81 0 24 0;
#X connect 82 0 23 0;
#X connect 83 0 86 0;
#X connect 84 0 70 0;
#X connect 85 0 87 0;
#X connect 86 0 85 0;
#X connect 87 0 84 0;
#X connect 88 0 69 0;
#X connect 88 0 70 0;
#X connect 89 0 70 0;
