#N canvas 1166 152 1278 1326 12;
#X obj 219 193 notein;
#X obj 226 242 pack;
#X obj 427 338 cyclone/midiformat;
#X obj 405 194 ctlin;
#X obj 418 244 pack;
#X obj 482 194 pgmin;
#X obj 297 195 polytouchin;
#X obj 308 238 pack;
#X obj 548 197 touchin;
#X obj 624 198 bendin, f 7;
#X obj 324 484 midiout;
#X connect 0 0 1 0;
#X connect 0 1 1 1;
#X connect 0 2 2 6;
#X connect 1 0 2 0;
#X connect 2 0 10 0;
#X connect 3 0 4 0;
#X connect 3 1 4 1;
#X connect 4 0 2 2;
#X connect 5 0 2 3;
#X connect 6 0 7 0;
#X connect 6 1 7 1;
#X connect 7 0 2 1;
#X connect 8 0 2 4;
#X connect 9 0 2 5;
