#N canvas 437 15 958 988 12;
#X obj 17 165 unpack;
#X obj 198 213 cyclone/comment 50 11 helvetica ? 0 0 0 0 Control;
#X obj 312 214 cyclone/comment 50 11 helvetica ? 0 0 0 0 Aftertouch
;
#X obj 425 207 cyclone/comment 0 11 helvetica ? 0 0 0 0 Channel;
#X obj 38 207 cyclone/comment 43 11 helvetica ? 0 0 0 0 Note in;
#X obj 111 215 cyclone/comment 0 11 helvetica ? 0 0 0 0 Poly touch
;
#X obj 262 214 cyclone/comment 0 11 helvetica ? 0 0 0 0 Program;
#X obj 428 186 nbx 2 14 -1e+037 1e+037 0 0 empty empty empty 0 -8 0
10 -228856 -1 -1 10 256;
#X obj 314 198 nbx 3 14 -1e+037 1e+037 0 0 empty empty empty 0 -8 0
10 -228856 -1 -1 4 256;
#X obj 264 198 nbx 3 14 -1e+037 1e+037 0 0 empty empty empty 0 -8 0
10 -228856 -1 -1 26 256;
#X obj 17 195 nbx 3 14 -1e+037 1e+037 0 0 empty empty empty 0 -8 0
10 -228856 -1 -1 36 256;
#X obj 59 196 nbx 3 14 -1e+037 1e+037 0 0 empty empty empty 0 -8 0
10 -228856 -1 -1 0 256;
#X obj 66 166 unpack;
#X obj 97 197 nbx 3 14 -1e+037 1e+037 0 0 empty empty empty 0 -8 0
10 -228856 -1 -1 0 256;
#X obj 136 198 nbx 3 14 -1e+037 1e+037 0 0 empty empty empty 0 -8 0
10 -228856 -1 -1 0 256;
#X obj 119 166 unpack;
#X obj 179 199 nbx 3 14 -1e+037 1e+037 0 0 empty empty empty 0 -8 0
10 -228856 -1 -1 121 256;
#X obj 221 198 nbx 3 14 -1e+037 1e+037 0 0 empty empty empty 0 -8 0
10 -228856 -1 -1 0 256;
#X obj 15 139 cyclone/midiparse @hires 2, f 57;
#X obj 13 9 bng 15 250 50 0 empty empty empty 17 7 0 10 -262144 -1
-1;
#X obj 360 197 nbx 5 14 -1e+037 1e+037 0 0 empty empty empty 0 -8 0
10 -262144 -1 -1 0 256;
#X text 369 215 pitch;
#X obj 296 759 dac~;
#X obj 280 683 *~;
#X obj 375 630 vsl 15 128 0 1 0 0 empty empty empty 0 -9 0 10 -262144
-1 -1 12700 1;
#X text 32 0 Start reading MIDI file;
#X text 211 444 Instruments;
#X text 419 688 Master Volume;
#X msg 657 147 listen 5000;
#X obj 658 176 netreceive -u -b 5000;
#X text 542 177 Receiving Data;
#X msg 409 108 hook \$1;
#X obj 189 76 bng 15 250 50 0 empty empty empty 17 7 0 10 -262144 -1
-1;
#X text 208 72 Relance la lecture;
#X msg 216 4 stop;
#X msg 201 307 0, f 2;
#X obj 109 234 bng 15 250 50 0 empty empty empty 17 7 0 10 -262144
-1 -1;
#X msg 94 326 1, f 2;
#X msg 66 327 0, f 2;
#X msg 288 306 1.75;
#X msg 13 72 start \$1;
#X obj 657 212 util/OSCParser;
#X obj 54 447 instruments/Violin;
#X obj 325 440 instruments/Guitar;
#X obj 534 85 util/TempoFixer;
#X msg 88 35 1024;
#X text 73 300 Gain;
#X text 167 286 Reset sustain;
#X text 288 279 Bend;
#X obj 28 692 nbx 5 14 -1e+037 1e+037 0 0 empty empty empty 0 -8 0
10 -262144 -1 -1 65.4064 256;
#X obj 28 605 mtof;
#X obj 118 696 nbx 5 14 -1e+037 1e+037 0 0 empty empty empty 0 -8 0
10 -262144 -1 -1 8.1758 256;
#X obj 118 609 mtof;
#X msg 317 24 1024;
#X obj 154 796 midiout;
#X obj 50 772 int;
#X obj 111 734 int;
#X obj 13 106 cyclone/seq MIDI_files/MIDI_sample.mid;
#X connect 0 0 10 0;
#X connect 0 1 11 0;
#X connect 10 0 42 1;
#X connect 10 0 50 0;
#X connect 11 0 42 2;
#X connect 11 0 52 0;
#X connect 12 0 13 0;
#X connect 12 1 14 0;
#X connect 15 0 16 0;
#X connect 15 1 17 0;
#X connect 18 0 0 0;
#X connect 18 1 12 0;
#X connect 18 2 15 0;
#X connect 18 3 9 0;
#X connect 18 4 8 0;
#X connect 18 5 20 0;
#X connect 18 6 7 0;
#X connect 19 0 39 0;
#X connect 19 0 36 0;
#X connect 19 0 45 0;
#X connect 23 0 22 0;
#X connect 23 0 22 1;
#X connect 24 0 23 1;
#X connect 28 0 29 0;
#X connect 29 0 41 0;
#X connect 31 0 57 0;
#X connect 32 0 57 0;
#X connect 34 0 35 0;
#X connect 34 0 53 0;
#X connect 34 0 57 0;
#X connect 35 0 42 2;
#X connect 35 0 43 2;
#X connect 36 0 38 0;
#X connect 36 0 37 0;
#X connect 37 0 43 0;
#X connect 38 0 42 0;
#X connect 39 0 42 5;
#X connect 39 0 42 1;
#X connect 39 0 43 4;
#X connect 40 0 57 0;
#X connect 41 0 24 0;
#X connect 41 1 44 0;
#X connect 41 2 42 3;
#X connect 41 2 43 3;
#X connect 41 3 42 4;
#X connect 42 0 23 0;
#X connect 43 0 23 0;
#X connect 44 0 31 0;
#X connect 45 0 40 0;
#X connect 45 0 44 1;
#X connect 49 0 55 0;
#X connect 50 0 49 0;
#X connect 51 0 56 0;
#X connect 52 0 51 0;
#X connect 53 0 44 2;
#X connect 55 0 43 1;
#X connect 56 0 43 2;
#X connect 57 0 18 0;
#X connect 57 1 32 0;
