#N canvas 810 7 1087 708 12;
#X obj 206 259 midiout;
#X obj 563 186 bng 15 250 50 0 empty empty empty 17 7 0 10 -262144
-1 -1;
#X msg 235 72 stop;
#X msg 294 72 record;
#X obj 562 103 bng 15 250 50 0 empty empty empty 17 7 0 10 -262144
-1 -1;
#X obj 563 143 bng 15 250 50 0 empty empty empty 17 7 0 10 -262144
-1 -1;
#X text 581 100 Start Recording;
#X text 582 140 Stop Recording;
#X text 579 183 Listen to sample;
#X obj 38 90 midiin;
#X obj 175 172 cyclone/seq res/a.mid;
#X msg 349 25 write res/a.mid;
#X connect 1 0 10 0;
#X connect 2 0 10 0;
#X connect 3 0 10 0;
#X connect 4 0 11 0;
#X connect 5 0 2 0;
#X connect 9 0 0 0;
#X connect 9 0 10 0;
#X connect 10 0 0 0;
#X connect 11 0 3 0;
#X connect 11 0 10 0;
#X coords 0 0 1 1 85 60 0;
