#N canvas 799 134 592 566 12;
#X obj 162 169 oscparse;
#X obj 221 140 oscformat;
#X obj 160 218 list trim;
#X obj 160 266 unpack s f;
#X obj 170 367 outlet;
#X floatatom 313 352 5 0 0 0 - - -;
#X obj 274 20 inlet;
#X obj 207 798 nbx 5 14 -1e+037 1e+037 0 0 empty empty empty 0 -8 0
10 -262144 -1 -1 0 256;
#X floatatom 367 42 5 0 0 0 - - -;
#X msg 120 49 listen \$1;
#X obj 329 89 print;
#X obj 66 91 print;
#X obj 92 162 print;
#X obj 134 100 netreceive -u -b;
#X connect 0 0 2 0;
#X connect 1 0 0 0;
#X connect 2 0 3 0;
#X connect 3 1 4 0;
#X connect 3 1 5 0;
#X connect 6 0 8 0;
#X connect 6 0 10 0;
#X connect 6 0 9 0;
#X connect 9 0 11 0;
#X connect 9 0 13 0;
#X connect 13 0 0 0;
#X connect 13 0 12 0;
